# xmcd
#
# Track frame offsets: 
#        150
#        18600
#        38325
#        56775
#
# Disc length: 1018 seconds
#
# Revision: 0
# Processed by: cddbd v1.5.2PL0 Copyright (c) Steve Scherf et al.
# Submitted via: ExactAudioCopy v1.3
#
DISCID=2a03f804
DTITLE=鈴木正夫 藤みち子 武花千草 須藤圭子 おもだか秋子 - よろこび音頭 新風踊り
DYEAR=2012
DGENRE=JPop
TTITLE0=よろこび音頭
TTITLE1=須藤圭子 おもだか秋子 - 新しい風
TTITLE2=よろこび音頭 (オリジナル・カラオケ)
TTITLE3=須藤圭子 おもだか秋子 - 新しい風 (オリジナル・カラオケ)
EXTD=
EXTT0=
EXTT1=
EXTT2=
EXTT3=
PLAYORDER=
